<?xml version="1.0" encoding="utf-8"?>
<svg xmlns="http://www.w3.org/2000/svg" width="38" height="38" viewBox="0 0 38 38" fill="none">
<path d="M33.8975 11.6057C33.8097 9.83407 33.5168 8.8531 33.2679 8.22353C32.9312 7.35969 32.5359 6.7594 31.8917 6.11518C31.2621 5.48561 30.6471 5.07565 29.798 4.75354C29.1537 4.50464 28.1874 4.19717 26.4012 4.12397C24.4685 4.03612 23.8975 4.00684 18.9927 4.00684C14.0878 4.00684 13.5315 4.03612 11.5988 4.12397C9.82723 4.19717 8.84627 4.50464 8.20205 4.75354C7.35285 5.07565 6.73792 5.47097 6.10835 6.11518C5.46413 6.74476 5.06881 7.35969 4.73206 8.22353C4.48316 8.8531 4.19034 9.81943 4.10249 11.6057C4.01464 13.5383 4 14.1093 4 18.9995C4 23.8897 4.01464 24.4607 4.10249 26.3934C4.19034 28.1796 4.48316 29.1459 4.73206 29.7902C5.06881 30.6393 5.46413 31.2543 6.10835 31.8985C6.75256 32.5427 7.35285 32.938 8.20205 33.2601C8.84627 33.509 9.81259 33.8165 11.5988 33.8897C13.5315 33.9776 14.1025 33.9922 18.9927 33.9922C23.8829 33.9922 24.4685 33.9776 26.4012 33.8897C28.1728 33.8165 29.1537 33.509 29.798 33.2601C30.6471 32.938 31.2474 32.5427 31.8917 31.8985C32.5359 31.2543 32.9312 30.6393 33.2679 29.7902C33.5168 29.1459 33.8097 28.1796 33.8975 26.3934C33.9707 24.4754 34 23.8897 34 18.9995C34 14.1093 33.9707 13.5383 33.8975 11.6057ZM18.9927 28.4139C13.8097 28.4139 9.59297 24.2118 9.59297 19.0142C9.59297 13.8165 13.8097 9.61445 18.9927 9.61445C24.1757 9.61445 28.407 13.8311 28.407 19.0142C28.407 24.1972 24.1903 28.4139 18.9927 28.4139ZM28.7731 11.4446C27.5578 11.4446 26.5769 10.449 26.5769 9.24842C26.5769 8.04783 27.5725 7.05222 28.7731 7.05222C29.9736 7.05222 30.9693 8.03319 30.9693 9.24842C30.9693 10.4636 29.9883 11.4446 28.7731 11.4446Z" fill="#6EC4E4"/>
<path d="M25.0981 19.0142C25.0981 22.3817 22.3748 25.1196 18.9927 25.1196C15.6105 25.1196 12.9019 22.3817 12.9019 19.0142C12.9019 15.6467 15.6252 12.9234 18.9927 12.9234C22.3602 12.9234 25.0981 15.6467 25.0981 19.0142Z" fill="#6EC4E4"/>
</svg>