<?xml version="1.0" encoding="utf-8"?>
<svg xmlns="http://www.w3.org/2000/svg" width="38" height="38" viewBox="0 0 38 38" fill="none">
<path d="M36.1514 12.0029C36.1514 12.0029 35.8096 9.58984 34.7568 8.53027C33.4238 7.13574 31.9336 7.12891 31.25 7.04687C26.3555 6.69141 19.0068 6.69141 19.0068 6.69141H18.9932C18.9932 6.69141 11.6445 6.69141 6.75 7.04687C6.06641 7.12891 4.57617 7.13574 3.24316 8.53027C2.19043 9.58984 1.85547 12.0029 1.85547 12.0029C1.85547 12.0029 1.5 14.8398 1.5 17.6699V20.3223C1.5 23.1523 1.84863 25.9893 1.84863 25.9893C1.84863 25.9893 2.19043 28.4023 3.23633 29.4619C4.56934 30.8564 6.31934 30.8086 7.09863 30.959C9.90137 31.2256 19 31.3076 19 31.3076C19 31.3076 26.3555 31.2939 31.25 30.9453C31.9336 30.8633 33.4238 30.8564 34.7568 29.4619C35.8096 28.4023 36.1514 25.9893 36.1514 25.9893C36.1514 25.9893 36.5 23.1592 36.5 20.3223V17.6699C36.5 14.8398 36.1514 12.0029 36.1514 12.0029ZM15.3838 23.542V13.7051L24.8379 18.6406L15.3838 23.542Z" fill="#6EC4E4"/>
</svg>